# xmcd
#
# Track frame offsets: 
#        150
#        19696
#        39969
#        58799
#        76939
#        95585
#        116302
#        136650
#        155893
#        176976
#        194342
#        216320
#        235263
#        257181
#        274364
#        294036
#        311550
#        334736
#
# Disc length: 4724 seconds
#
# Revision: 0
# Processed by: cddbd v1.5.1PL2 Copyright (c) Steve Scherf et al.
# Submitted via: ExactAudioCopy v0.95b2
#
DISCID=04127212
DTITLE=Фристайл - Золотые Хиты
DYEAR=1900
DGENRE=Pop
TTITLE0=Прощай Навеки Последняя Любовь
TTITLE1=Сон
TTITLE2=Как Птичья Стая
TTITLE3=Целуй Меня Горячей
TTITLE4=Ты Ни В Чём Не Виноват
TTITLE5=Crazy Baby
TTITLE6=Больно Мне, Больно
TTITLE7=Без Тебя
TTITLE8=Злая Доля
TTITLE9=Метелица
TTITLE10=Всё Как У Всех
TTITLE11=Дождь Стучит По Крышам
TTITLE12=Белая Берёза
TTITLE13=Кони Кони
TTITLE14=Край Неземных Чудес
TTITLE15=Ламбада-Бамбина
TTITLE16=Ах, Какая Женщина
TTITLE17=Измученное Сердце
EXTD=
EXTT0=
EXTT1=
EXTT2=
EXTT3=
EXTT4=
EXTT5=
EXTT6=
EXTT7=
EXTT8=
EXTT9=
EXTT10=
EXTT11=
EXTT12=
EXTT13=
EXTT14=
EXTT15=
EXTT16=
EXTT17=
PLAYORDER=
